<svg width="26" height="24" viewBox="0 0 26 24" fill="none" xmlns="http://www.w3.org/2000/svg">
<path d="M11.9167 18V21C11.9167 21.5 11.4833 22 10.8333 22C10.1833 22 9.75 21.5 9.75 21V18H11.9167Z" stroke="#7D848D" stroke-width="1.5" stroke-miterlimit="10" stroke-linecap="round" stroke-linejoin="round"/>
<path d="M16.2507 18V21C16.2507 21.5 15.8173 22 15.1673 22C14.5173 22 14.084 21.5 14.084 21V18H16.2507Z" stroke="#7D848D" stroke-width="1.5" stroke-miterlimit="10" stroke-linecap="round" stroke-linejoin="round"/>
<path d="M18.4173 11V16C18.4173 17.1 17.4423 18 16.2507 18H9.75065C8.55898 18 7.58398 17.1 7.58398 16V11C7.58398 9.9 8.55898 9 9.75065 9H16.2507C17.4423 9 18.4173 9.9 18.4173 11Z" stroke="#7D848D" stroke-width="1.5" stroke-miterlimit="10" stroke-linecap="round" stroke-linejoin="round"/>
<path d="M5.41667 11V15C5.41667 15.6 4.98333 16 4.33333 16C3.68333 16 3.25 15.6 3.25 15V11C3.25 10.4 3.68333 10 4.33333 10C4.98333 10 5.41667 10.4 5.41667 11Z" stroke="#7D848D" stroke-width="1.5" stroke-miterlimit="10" stroke-linecap="round" stroke-linejoin="round"/>
<path d="M22.7507 11V15C22.7507 15.6 22.3173 16 21.6673 16C21.0173 16 20.584 15.6 20.584 15V11C20.584 10.4 21.0173 10 21.6673 10C22.3173 10 22.7507 10.4 22.7507 11Z" stroke="#7D848D" stroke-width="1.5" stroke-miterlimit="10" stroke-linecap="round" stroke-linejoin="round"/>
<path d="M14.0827 18H11.916" stroke="#7D848D" stroke-width="1.5" stroke-miterlimit="10" stroke-linecap="round" stroke-linejoin="round"/>
<path d="M10.3993 7H15.5993C16.5743 7 17.3327 6.25 17.3327 5.28571C17.3327 2.92857 15.3827 1 12.9993 1C10.616 1 8.66602 2.92857 8.66602 5.28571C8.66602 6.25 9.42435 7 10.3993 7Z" stroke="#7D848D" stroke-width="1.5" stroke-miterlimit="10" stroke-linecap="round" stroke-linejoin="round"/>
</svg>