<svg width="22" height="23" viewBox="0 0 22 23" fill="none" xmlns="http://www.w3.org/2000/svg">
<path d="M1.07227 12.33V14.5C1.07227 19.5 3.07227 21.5 8.07227 21.5H14.0723C19.0723 21.5 21.0723 19.5 21.0723 14.5V8.5C21.0723 3.5 19.0723 1.5 14.0723 1.5H8.07227C3.07227 1.5 1.07227 3.5 1.07227 8.5" stroke="#2C14DD" stroke-width="1.5" stroke-linecap="round" stroke-linejoin="round"/>
<path d="M9.18256 10.6494H6.53256C5.90256 10.6494 5.39258 11.1594 5.39258 11.7894V16.9094H9.18256V10.6494V10.6494Z" stroke="#2C14DD" stroke-width="1.5" stroke-miterlimit="10" stroke-linecap="round" stroke-linejoin="round"/>
<path d="M11.8319 6.09961H10.3119C9.68186 6.09961 9.17188 6.60962 9.17188 7.23962V16.8997H12.9619V7.23962C12.9619 6.60962 12.4619 6.09961 11.8319 6.09961Z" stroke="#2C14DD" stroke-width="1.5" stroke-miterlimit="10" stroke-linecap="round" stroke-linejoin="round"/>
<path d="M15.6227 12.3496H12.9727V16.8997H16.7627V13.4896C16.7527 12.8596 16.2427 12.3496 15.6227 12.3496Z" stroke="#2C14DD" stroke-width="1.5" stroke-miterlimit="10" stroke-linecap="round" stroke-linejoin="round"/>
</svg>
