<svg width="14" height="15" viewBox="0 0 14 15" fill="none" xmlns="http://www.w3.org/2000/svg">
<path fill-rule="evenodd" clip-rule="evenodd" d="M9.61863 0.5C9.77233 1.27 9.38809 2.04 8.92699 2.6C8.46589 3.16 7.62055 3.65 6.77521 3.58C6.62151 2.81 7.00576 2.11 7.46685 1.55C8.0048 0.99 8.85014 0.57 9.61863 0.5ZM12.0778 12.68C12.4621 12.12 12.6926 11.77 13 11.14C10.6177 10.3 10.2334 7.22 12.6158 6.1C11.9241 5.26 10.9251 4.84 9.92603 4.84C9.23439 4.84 8.77329 4.98 8.3122 5.12C7.92795 5.26 7.62055 5.33 7.23631 5.33C6.77521 5.33 6.46781 5.19 6.00672 5.05C5.54562 4.91 5.08453 4.77 4.54658 4.77C3.47069 4.77 2.31795 5.33 1.62631 6.38C0.62727 7.78 0.780968 10.51 2.3948 12.75C3.08645 13.59 3.85494 14.5 4.85398 14.5C5.31507 14.5 5.54562 14.36 5.85302 14.29C6.23727 14.15 6.62151 14.01 7.23631 14.01C7.92795 14.01 8.23535 14.15 8.61959 14.29C8.92699 14.43 9.15754 14.5 9.61863 14.5C10.6945 14.5 11.463 13.45 12.0778 12.68Z" stroke="#2C14DD" stroke-miterlimit="10" stroke-linecap="round" stroke-linejoin="round"/>
</svg>
